<svg width="1706" height="410" viewBox="0 0 1706 410" fill="none" xmlns="http://www.w3.org/2000/svg">
<path fill-rule="evenodd" clip-rule="evenodd" d="M621.657 170.741C626.82 170.741 631.522 171.762 635.765 173.752C640.109 175.641 643.79 178.55 646.856 182.531C649.923 186.411 652.275 191.311 653.91 197.282C655.546 203.254 656.364 210.247 656.364 218.209C656.364 226.172 655.546 233.165 653.91 239.137C652.275 245.108 649.923 250.111 646.856 254.092C643.79 257.971 640.109 260.88 635.765 262.871C631.522 264.759 626.82 265.678 621.657 265.678C614.604 265.678 608.93 264.045 604.585 260.778C600.496 257.563 597.174 253.326 594.771 248.018C594.669 247.763 594.363 247.558 594.107 247.558C593.698 247.558 593.34 247.916 593.34 248.324V297.273C593.34 298.09 592.676 298.753 591.858 298.753H572.281C571.464 298.753 570.799 298.09 570.799 297.273V174.314C570.799 173.497 571.464 172.833 572.281 172.833H591.858C592.676 172.833 593.34 173.497 593.34 174.314V188.095C593.34 188.503 593.698 188.861 594.107 188.861C594.414 188.861 594.669 188.707 594.771 188.401C597.225 183.093 600.496 178.856 604.585 175.641C608.93 172.374 614.604 170.741 621.657 170.741ZM612.15 188.707C606.988 188.707 602.541 189.983 598.758 192.587C595.129 195.037 593.289 198.865 593.289 204.02V232.501C593.289 237.656 595.129 241.536 598.758 244.088C602.49 246.538 606.988 247.763 612.15 247.763C618.744 247.763 623.753 245.772 627.28 241.791C630.909 237.809 632.749 232.348 632.749 225.457V211.064C632.749 204.173 630.909 198.712 627.28 194.73C623.753 190.749 618.693 188.758 612.15 188.758V188.707Z" fill="white"/>
<path fill-rule="evenodd" clip-rule="evenodd" d="M509.411 138.789C525.359 138.789 537.115 144.352 544.629 155.479C552.143 166.606 555.874 182.174 555.874 202.233C555.874 222.293 552.092 237.86 544.629 248.988C537.115 260.115 525.359 265.678 509.411 265.678C501.438 265.678 494.486 264.249 488.659 261.442C482.781 258.532 477.925 254.347 474.041 248.937C470.309 243.526 467.447 236.942 465.607 229.081C463.869 221.221 462.949 212.289 462.949 202.182C462.949 192.076 463.818 183.297 465.607 175.437C467.498 167.474 470.309 160.788 474.041 155.377C477.925 149.967 482.781 145.883 488.659 143.076C494.537 140.167 501.438 138.687 509.411 138.687V138.789ZM509.411 157.572C501.182 157.572 495.457 160.634 492.135 166.708C488.966 172.782 487.381 181.102 487.381 191.668V212.748C487.381 223.314 488.966 231.633 492.135 237.707C495.406 243.781 501.182 246.844 509.411 246.844C513.501 246.844 516.976 246.078 519.788 244.547C522.599 242.914 524.848 240.617 526.484 237.707C528.221 234.798 529.499 231.225 530.164 226.989C530.982 222.65 531.39 217.852 531.39 212.595V191.668C531.39 181.102 529.755 172.782 526.484 166.708C523.314 160.634 517.641 157.572 509.411 157.572Z" fill="white"/>
<path fill-rule="evenodd" clip-rule="evenodd" d="M713.867 170.741C720.46 170.741 726.39 171.864 731.654 174.058C736.919 176.151 741.417 179.214 745.046 183.195C748.778 187.176 751.691 191.974 753.684 197.589C755.678 203.203 756.7 209.43 756.7 216.219V222.14C756.7 222.956 756.036 223.62 755.218 223.62H694.444C693.626 223.62 692.961 224.283 692.961 225.1V225.917C692.961 232.501 695.006 237.809 699.146 241.893C703.235 245.874 709.011 247.865 716.371 247.865C721.994 247.865 726.799 246.742 730.785 244.547C734.363 242.505 737.43 239.902 739.935 236.789C740.497 236.074 741.57 235.972 742.184 236.635L752.969 247.405C753.48 247.916 753.531 248.681 753.122 249.243C749.851 253.632 745.302 257.409 739.373 260.574C733.137 263.994 725.214 265.678 715.605 265.678C708.346 265.678 701.855 264.555 696.232 262.361C690.61 260.115 685.856 256.95 681.972 252.867C678.24 248.783 675.327 243.832 673.333 238.116C671.34 232.246 670.369 225.713 670.369 218.414C670.369 211.115 671.34 204.428 673.333 198.558C675.429 192.689 678.394 187.738 682.125 183.603C685.856 179.52 690.406 176.355 695.67 174.109C701.088 171.864 707.12 170.792 713.816 170.792L713.867 170.741ZM714.02 187.278C707.682 187.278 702.571 189.269 698.686 193.25C694.801 197.231 692.859 202.489 692.859 209.073C692.859 209.737 693.421 210.298 694.086 210.298H732.574C733.392 210.298 734.057 209.634 734.057 208.818V208.716C734.057 202.131 732.217 196.925 728.588 193.097C725.061 189.218 720.205 187.278 713.969 187.278H714.02Z" fill="white"/>
<path d="M1115.57 138.789C1121.65 138.789 1127.02 139.605 1131.57 141.239C1136.27 142.872 1140.26 145.169 1143.53 148.078C1146.95 150.988 1149.72 154.509 1151.81 158.644C1153.8 162.217 1155.44 166.096 1156.72 170.281C1156.97 171.047 1156.51 171.864 1155.7 172.068L1137.35 177.274C1136.58 177.478 1135.81 177.07 1135.56 176.304C1134.84 174.212 1134.02 172.119 1133.15 170.077C1132.23 167.627 1130.96 165.483 1129.27 163.748C1127.74 161.859 1125.84 160.379 1123.65 159.358C1121.45 158.184 1118.64 157.623 1115.37 157.623C1107.75 157.623 1102.28 160.685 1099.01 166.759C1095.74 172.833 1094.1 181.153 1094.1 191.719V211.421C1094.1 216.678 1094.46 221.578 1095.18 226.019C1095.99 230.357 1097.27 234.083 1099.06 237.248C1100.8 240.413 1103.1 242.863 1105.91 244.649C1108.72 246.282 1112.25 247.099 1116.49 247.099C1123.08 247.099 1128.04 245.159 1131.47 241.28C1134.89 237.299 1136.58 232.246 1136.58 226.172V217.597C1136.58 216.78 1135.91 216.117 1135.1 216.117H1115.67C1114.86 216.117 1114.19 215.453 1114.19 214.637V200.855C1114.19 200.039 1114.86 199.375 1115.67 199.375H1155.7C1156.51 199.375 1157.18 200.039 1157.18 200.855V262.105C1157.18 262.922 1156.51 263.585 1155.7 263.585H1138.01C1137.19 263.585 1136.53 262.922 1136.53 262.105V247.354C1136.53 246.895 1136.17 246.486 1135.66 246.486C1135.3 246.486 1134.99 246.691 1134.89 246.997C1133.87 249.294 1132.64 251.54 1131.26 253.683C1129.73 256.031 1127.84 258.073 1125.64 259.859C1123.39 261.595 1120.78 263.024 1117.72 264.096C1114.8 265.168 1111.38 265.678 1107.49 265.678C1095.07 265.678 1085.62 260.217 1079.18 249.345C1072.84 238.32 1069.67 222.905 1069.67 203.101C1069.67 182.225 1073.4 166.3 1080.92 155.275C1088.43 144.25 1099.98 138.738 1115.62 138.738L1115.57 138.789Z" fill="white"/>
<path d="M825.908 170.741C834.802 170.741 842.06 173.752 847.581 179.724C853.203 185.594 856.014 194.016 856.014 205.041V262.105C856.014 262.922 855.35 263.586 854.532 263.586H834.956C834.138 263.586 833.473 262.922 833.473 262.105V208.205C833.473 195.088 827.8 188.503 816.401 188.503C814.05 188.503 811.801 188.809 809.705 189.371C807.61 189.932 805.667 190.902 803.878 192.178C802.243 193.352 800.863 194.832 799.84 196.568C798.92 198.303 798.409 200.447 798.409 202.897V262.105C798.409 262.922 797.745 263.586 796.927 263.586H777.35C776.532 263.586 775.868 262.922 775.868 262.105V174.314C775.868 173.497 776.532 172.833 777.35 172.833H796.927C797.745 172.833 798.409 173.497 798.409 174.314V188.299C798.409 188.605 798.665 188.809 798.92 188.809C799.125 188.809 799.329 188.656 799.431 188.503C801.425 183.705 804.441 179.622 808.427 176.202C812.67 172.578 818.446 170.741 825.857 170.741H825.908Z" fill="white"/>
<path fill-rule="evenodd" clip-rule="evenodd" d="M925.478 140.881C937.439 140.881 946.588 144.301 952.927 151.09C959.265 157.878 962.434 167.168 962.434 178.856C962.434 187.891 960.338 195.496 956.096 201.723C952.313 207.337 946.997 211.012 940.199 212.85C939.279 213.105 938.768 214.126 939.228 214.994L963.456 261.442C963.967 262.411 963.252 263.585 962.127 263.585H940.097C939.535 263.585 939.024 263.279 938.768 262.769L916.176 216.78C915.92 216.27 915.409 215.964 914.847 215.964H903.295C902.477 215.964 901.813 216.627 901.813 217.444V262.156C901.813 262.973 901.148 263.636 900.33 263.636H880.192C879.374 263.636 878.709 262.973 878.709 262.156V142.361C878.709 141.545 879.374 140.881 880.192 140.881H925.376H925.478ZM901.915 196.568C901.915 197.384 902.579 198.048 903.397 198.048H920.776C927.012 198.048 931.459 196.823 934.168 194.373C936.877 191.77 938.206 187.737 938.206 182.225V175.539C938.206 170.026 936.877 166.045 934.168 163.595C931.459 160.992 927.012 159.716 920.776 159.716H903.397C902.579 159.716 901.915 160.379 901.915 161.196V196.568Z" fill="white"/>
<path fill-rule="evenodd" clip-rule="evenodd" d="M1069.77 261.697C1070.03 262.616 1069.31 263.535 1068.34 263.535H1046.92C1046.26 263.535 1045.7 263.075 1045.49 262.463L1037.47 233.471C1037.32 232.858 1036.7 232.399 1036.04 232.399H1001.84C1001.18 232.399 1000.62 232.858 1000.41 233.471L992.54 262.412C992.386 263.024 991.773 263.483 991.109 263.483H970.919C969.948 263.483 969.232 262.565 969.488 261.646L1003.17 141.851C1003.38 141.239 1003.94 140.779 1004.6 140.779H1034.4C1035.07 140.779 1035.63 141.239 1035.83 141.851L1069.67 261.646L1069.77 261.697ZM1005.32 211.829C1005.06 212.748 1005.78 213.667 1006.75 213.667H1031.44C1032.41 213.667 1033.12 212.748 1032.87 211.829L1019.99 164.258C1019.89 163.85 1019.53 163.595 1019.12 163.595C1018.71 163.595 1018.35 163.85 1018.25 164.258L1005.37 211.829H1005.32Z" fill="white"/>
<rect x="91" y="73" width="311" height="264" rx="4" fill="#252526"/>
<rect x="191" y="142" width="109" height="152" fill="black"/>
<mask id="path-10-outside-1_6_180" maskUnits="userSpaceOnUse" x="101.474" y="84.4473" width="291" height="242" fill="black">
<rect fill="white" x="101.474" y="84.4473" width="291" height="242"/>
<path d="M296.891 102.447C297.708 102.448 298.372 103.11 298.372 103.927V112.4H298.219C298.219 113.217 298.884 113.88 299.701 113.88H321.834C322.652 113.88 323.317 114.544 323.317 115.36V124.956C323.317 125.773 323.981 126.437 324.799 126.437H334.408C335.226 126.437 335.89 127.1 335.89 127.917V138.022C335.89 138.839 336.555 139.503 337.372 139.503H348.055C348.873 139.503 349.537 140.167 349.537 140.983V150.579C349.537 151.396 350.202 152.059 351.02 152.06H360.629C361.447 152.06 362.112 152.723 362.112 153.54V173.446C362.112 174.263 362.776 174.926 363.594 174.926H372.641C373.459 174.926 374.123 175.59 374.123 176.406V205.041C374.123 205.858 373.459 206.521 372.641 206.521H363.594C362.776 206.521 362.112 207.184 362.112 208.001V218.107C362.112 218.924 361.447 219.588 360.629 219.588H351.02C350.202 219.588 349.538 220.251 349.537 221.067V230.663C349.537 231.48 348.873 232.144 348.055 232.144H341.156C340.338 232.144 339.673 232.807 339.673 233.624V253.53C339.673 254.347 339.008 255.011 338.191 255.011H328.07C327.252 255.011 326.587 254.347 326.587 253.53V245.058C326.587 244.241 325.923 243.577 325.106 243.577H324.237C323.419 243.577 322.754 242.913 322.754 242.097V149.252C322.754 148.435 322.089 147.771 321.272 147.771H311.152C310.334 147.771 309.669 148.435 309.669 149.252V276.907C309.669 277.724 310.334 278.388 311.152 278.388H315.854C316.672 278.388 317.336 279.052 317.336 279.868V306.308C317.336 307.124 316.671 307.787 315.854 307.787H177.693C176.875 307.787 176.21 307.124 176.21 306.308V279.868C176.21 279.052 176.875 278.388 177.693 278.388H182.396C183.213 278.387 183.878 277.724 183.878 276.907V149.252C183.878 148.435 183.213 147.772 182.396 147.771H172.275C171.457 147.772 170.792 148.435 170.792 149.252V242.097C170.792 242.913 170.128 243.577 169.31 243.577H168.442C167.624 243.577 166.959 244.241 166.959 245.058V253.53C166.959 254.347 166.295 255.011 165.477 255.011H155.356C154.538 255.01 153.874 254.347 153.874 253.53V233.624C153.874 232.807 153.21 232.144 152.392 232.144H145.542C144.724 232.144 144.06 231.48 144.06 230.663V221.067C144.06 220.251 143.395 219.588 142.577 219.588H132.968C132.15 219.588 131.486 218.924 131.486 218.107V208.001C131.486 207.185 130.822 206.521 130.004 206.521H120.956C120.139 206.52 119.474 205.857 119.474 205.041V176.406C119.474 175.59 120.139 174.926 120.956 174.926H130.004C130.822 174.926 131.485 174.263 131.486 173.446V153.54C131.486 152.723 132.15 152.06 132.968 152.06H142.577C143.395 152.06 144.06 151.396 144.06 150.579V140.983C144.06 140.167 144.724 139.503 145.542 139.503H156.225C157.043 139.503 157.707 138.839 157.707 138.022V127.917C157.707 127.1 158.372 126.437 159.19 126.437H168.799C169.617 126.437 170.281 125.773 170.281 124.956V115.36C170.282 114.544 170.946 113.88 171.764 113.88H193.896C194.713 113.88 195.378 113.217 195.378 112.4V103.927C195.378 103.11 196.043 102.447 196.861 102.447H296.891ZM226.965 204.732C226.149 204.733 225.484 205.398 225.483 206.213V223.414C225.483 224.23 226.148 224.894 226.965 224.895H238.056V245.212C237.956 245.264 237.808 245.458 237.802 245.466L232.945 251.741C232.894 251.842 232.795 252.051 232.795 252.051H217.206C216.388 252.051 215.724 252.715 215.724 253.531V275.633C215.725 276.449 216.389 277.112 217.206 277.112H221.599C221.344 277.367 221.19 277.673 221.19 278.08V281.146C221.191 281.961 221.855 282.625 222.672 282.626H230.854C230.036 282.626 229.371 283.29 229.371 284.106V287.167C229.372 287.983 230.036 288.647 230.854 288.647H258.402C259.219 288.647 259.884 287.983 259.884 287.167V284.106C259.884 283.29 259.219 282.626 258.402 282.626H266.578C267.395 282.626 268.06 281.961 268.061 281.146V278.08C268.06 277.723 267.907 277.367 267.652 277.112H272.049C272.866 277.112 273.531 276.449 273.531 275.633V253.531C273.531 252.715 272.867 252.051 272.049 252.051H256.82C256.768 251.949 256.665 251.741 256.665 251.741L251.808 245.466C251.655 245.263 251.194 245.008 251.194 245.008V224.895H262.236C263.053 224.894 263.718 224.231 263.718 223.414V206.213C263.717 205.397 263.053 204.733 262.236 204.732H226.965ZM258.402 263.485C259.219 263.485 259.884 264.149 259.884 264.966V275.069C259.884 275.886 259.219 276.55 258.402 276.55H230.854C230.036 276.55 229.371 275.886 229.371 275.069V264.966C229.371 264.149 230.036 263.485 230.854 263.485H258.402ZM206.879 242.251C206.061 242.251 205.397 242.915 205.397 243.731V251.691C205.397 252.508 206.061 253.172 206.879 253.172H214.85C215.668 253.172 216.333 252.508 216.333 251.691V243.731C216.333 242.915 215.668 242.251 214.85 242.251H206.879ZM274.449 242.251C273.633 242.252 272.967 242.915 272.967 243.731V251.691C272.967 252.507 273.633 253.171 274.449 253.172H282.426C283.243 253.171 283.909 252.508 283.909 251.691V243.731C283.909 242.915 283.243 242.252 282.426 242.251H274.449ZM195.992 223.21C195.175 223.21 194.511 223.874 194.51 224.69V241.892C194.51 242.708 195.175 243.372 195.992 243.372H203.964C204.782 243.372 205.447 242.708 205.447 241.892V224.69C205.446 223.874 204.781 223.21 203.964 223.21H195.992ZM285.336 223.21C284.52 223.211 283.854 223.875 283.854 224.69V241.892C283.854 242.707 284.52 243.371 285.336 243.372H293.313C294.13 243.372 294.795 242.708 294.795 241.892V224.69C294.795 223.875 294.13 223.21 293.313 223.21H285.336ZM206.879 164.462C206.062 164.462 205.397 165.126 205.397 165.942V178.244C205.397 179.06 206.062 179.725 206.879 179.725H219.198C220.015 179.724 220.68 179.06 220.681 178.244V165.942C220.681 165.126 220.015 164.462 219.198 164.462H206.879ZM270.108 164.462C269.29 164.462 268.624 165.126 268.624 165.942V178.244C268.625 179.06 269.29 179.725 270.108 179.725H282.426C283.243 179.724 283.909 179.06 283.909 178.244V165.942C283.909 165.126 283.243 164.463 282.426 164.462H270.108Z"/>
</mask>
<path d="M296.891 102.447C297.708 102.448 298.372 103.11 298.372 103.927V112.4H298.219C298.219 113.217 298.884 113.88 299.701 113.88H321.834C322.652 113.88 323.317 114.544 323.317 115.36V124.956C323.317 125.773 323.981 126.437 324.799 126.437H334.408C335.226 126.437 335.89 127.1 335.89 127.917V138.022C335.89 138.839 336.555 139.503 337.372 139.503H348.055C348.873 139.503 349.537 140.167 349.537 140.983V150.579C349.537 151.396 350.202 152.059 351.02 152.06H360.629C361.447 152.06 362.112 152.723 362.112 153.54V173.446C362.112 174.263 362.776 174.926 363.594 174.926H372.641C373.459 174.926 374.123 175.59 374.123 176.406V205.041C374.123 205.858 373.459 206.521 372.641 206.521H363.594C362.776 206.521 362.112 207.184 362.112 208.001V218.107C362.112 218.924 361.447 219.588 360.629 219.588H351.02C350.202 219.588 349.538 220.251 349.537 221.067V230.663C349.537 231.48 348.873 232.144 348.055 232.144H341.156C340.338 232.144 339.673 232.807 339.673 233.624V253.53C339.673 254.347 339.008 255.011 338.191 255.011H328.07C327.252 255.011 326.587 254.347 326.587 253.53V245.058C326.587 244.241 325.923 243.577 325.106 243.577H324.237C323.419 243.577 322.754 242.913 322.754 242.097V149.252C322.754 148.435 322.089 147.771 321.272 147.771H311.152C310.334 147.771 309.669 148.435 309.669 149.252V276.907C309.669 277.724 310.334 278.388 311.152 278.388H315.854C316.672 278.388 317.336 279.052 317.336 279.868V306.308C317.336 307.124 316.671 307.787 315.854 307.787H177.693C176.875 307.787 176.21 307.124 176.21 306.308V279.868C176.21 279.052 176.875 278.388 177.693 278.388H182.396C183.213 278.387 183.878 277.724 183.878 276.907V149.252C183.878 148.435 183.213 147.772 182.396 147.771H172.275C171.457 147.772 170.792 148.435 170.792 149.252V242.097C170.792 242.913 170.128 243.577 169.31 243.577H168.442C167.624 243.577 166.959 244.241 166.959 245.058V253.53C166.959 254.347 166.295 255.011 165.477 255.011H155.356C154.538 255.01 153.874 254.347 153.874 253.53V233.624C153.874 232.807 153.21 232.144 152.392 232.144H145.542C144.724 232.144 144.06 231.48 144.06 230.663V221.067C144.06 220.251 143.395 219.588 142.577 219.588H132.968C132.15 219.588 131.486 218.924 131.486 218.107V208.001C131.486 207.185 130.822 206.521 130.004 206.521H120.956C120.139 206.52 119.474 205.857 119.474 205.041V176.406C119.474 175.59 120.139 174.926 120.956 174.926H130.004C130.822 174.926 131.485 174.263 131.486 173.446V153.54C131.486 152.723 132.15 152.06 132.968 152.06H142.577C143.395 152.06 144.06 151.396 144.06 150.579V140.983C144.06 140.167 144.724 139.503 145.542 139.503H156.225C157.043 139.503 157.707 138.839 157.707 138.022V127.917C157.707 127.1 158.372 126.437 159.19 126.437H168.799C169.617 126.437 170.281 125.773 170.281 124.956V115.36C170.282 114.544 170.946 113.88 171.764 113.88H193.896C194.713 113.88 195.378 113.217 195.378 112.4V103.927C195.378 103.11 196.043 102.447 196.861 102.447H296.891ZM226.965 204.732C226.149 204.733 225.484 205.398 225.483 206.213V223.414C225.483 224.23 226.148 224.894 226.965 224.895H238.056V245.212C237.956 245.264 237.808 245.458 237.802 245.466L232.945 251.741C232.894 251.842 232.795 252.051 232.795 252.051H217.206C216.388 252.051 215.724 252.715 215.724 253.531V275.633C215.725 276.449 216.389 277.112 217.206 277.112H221.599C221.344 277.367 221.19 277.673 221.19 278.08V281.146C221.191 281.961 221.855 282.625 222.672 282.626H230.854C230.036 282.626 229.371 283.29 229.371 284.106V287.167C229.372 287.983 230.036 288.647 230.854 288.647H258.402C259.219 288.647 259.884 287.983 259.884 287.167V284.106C259.884 283.29 259.219 282.626 258.402 282.626H266.578C267.395 282.626 268.06 281.961 268.061 281.146V278.08C268.06 277.723 267.907 277.367 267.652 277.112H272.049C272.866 277.112 273.531 276.449 273.531 275.633V253.531C273.531 252.715 272.867 252.051 272.049 252.051H256.82C256.768 251.949 256.665 251.741 256.665 251.741L251.808 245.466C251.655 245.263 251.194 245.008 251.194 245.008V224.895H262.236C263.053 224.894 263.718 224.231 263.718 223.414V206.213C263.717 205.397 263.053 204.733 262.236 204.732H226.965ZM258.402 263.485C259.219 263.485 259.884 264.149 259.884 264.966V275.069C259.884 275.886 259.219 276.55 258.402 276.55H230.854C230.036 276.55 229.371 275.886 229.371 275.069V264.966C229.371 264.149 230.036 263.485 230.854 263.485H258.402ZM206.879 242.251C206.061 242.251 205.397 242.915 205.397 243.731V251.691C205.397 252.508 206.061 253.172 206.879 253.172H214.85C215.668 253.172 216.333 252.508 216.333 251.691V243.731C216.333 242.915 215.668 242.251 214.85 242.251H206.879ZM274.449 242.251C273.633 242.252 272.967 242.915 272.967 243.731V251.691C272.967 252.507 273.633 253.171 274.449 253.172H282.426C283.243 253.171 283.909 252.508 283.909 251.691V243.731C283.909 242.915 283.243 242.252 282.426 242.251H274.449ZM195.992 223.21C195.175 223.21 194.511 223.874 194.51 224.69V241.892C194.51 242.708 195.175 243.372 195.992 243.372H203.964C204.782 243.372 205.447 242.708 205.447 241.892V224.69C205.446 223.874 204.781 223.21 203.964 223.21H195.992ZM285.336 223.21C284.52 223.211 283.854 223.875 283.854 224.69V241.892C283.854 242.707 284.52 243.371 285.336 243.372H293.313C294.13 243.372 294.795 242.708 294.795 241.892V224.69C294.795 223.875 294.13 223.21 293.313 223.21H285.336ZM206.879 164.462C206.062 164.462 205.397 165.126 205.397 165.942V178.244C205.397 179.06 206.062 179.725 206.879 179.725H219.198C220.015 179.724 220.68 179.06 220.681 178.244V165.942C220.681 165.126 220.015 164.462 219.198 164.462H206.879ZM270.108 164.462C269.29 164.462 268.624 165.126 268.624 165.942V178.244C268.625 179.06 269.29 179.725 270.108 179.725H282.426C283.243 179.724 283.909 179.06 283.909 178.244V165.942C283.909 165.126 283.243 164.463 282.426 164.462H270.108Z" fill="#F5F4FA"/>
<path d="M296.891 102.447L296.896 84.4473H296.891V102.447ZM298.372 103.927H316.372V103.922L298.372 103.927ZM298.372 112.4V130.4C308.313 130.4 316.372 122.342 316.372 112.4H298.372ZM298.219 112.4V94.4004C293.444 94.4004 288.865 96.2974 285.49 99.674C282.114 103.051 280.218 107.63 280.219 112.405L298.219 112.4ZM299.701 113.88L299.698 131.88H299.701V113.88ZM321.834 113.88L321.837 95.8799H321.834V113.88ZM323.317 115.36H341.317V115.359L323.317 115.36ZM334.408 126.437L334.414 108.437H334.408V126.437ZM337.372 139.503L337.369 157.503H337.372V139.503ZM351.02 152.06L351.017 170.06H351.02V152.06ZM362.112 173.446H344.112V173.451L362.112 173.446ZM363.594 174.926L363.594 192.926H363.594V174.926ZM374.123 176.406H392.123V176.406L374.123 176.406ZM374.123 205.041L392.123 205.045V205.041H374.123ZM363.594 206.521V188.521H363.594L363.594 206.521ZM362.112 208.001L344.112 208V208.001H362.112ZM362.112 218.107L380.112 218.109V218.107H362.112ZM351.02 219.588V201.588H351.017L351.02 219.588ZM349.537 221.067L331.537 221.063V221.067H349.537ZM339.673 253.53L357.673 253.531V253.53H339.673ZM338.191 255.011V273.011H338.194L338.191 255.011ZM328.07 255.011L328.066 273.011H328.07V255.011ZM326.587 253.53H308.587V253.531L326.587 253.53ZM325.106 243.577L325.111 225.577H325.106V243.577ZM322.754 149.252H340.754V149.25L322.754 149.252ZM309.669 149.252L291.669 149.25V149.252H309.669ZM315.854 278.388L315.855 260.388H315.854V278.388ZM317.336 306.308L335.336 306.311V306.308H317.336ZM315.854 307.787V325.787H315.855L315.854 307.787ZM177.693 307.787L177.689 325.787H177.693V307.787ZM176.21 306.308H158.21L158.21 306.311L176.21 306.308ZM177.693 278.388V260.388H177.689L177.693 278.388ZM182.396 278.388V296.388H182.4L182.396 278.388ZM183.878 149.252H201.878V149.25L183.878 149.252ZM182.396 147.771L182.4 129.771H182.396V147.771ZM172.275 147.771V129.771H172.272L172.275 147.771ZM170.792 149.252L152.792 149.25V149.252H170.792ZM166.959 253.53L184.959 253.531V253.53H166.959ZM165.477 255.011V273.011H165.478L165.477 255.011ZM155.356 255.011L155.35 273.011H155.356V255.011ZM153.874 253.53H135.874V253.531L153.874 253.53ZM152.392 232.144L152.395 214.144H152.392V232.144ZM145.542 232.144L145.541 250.144H145.542V232.144ZM144.06 221.067H162.06L162.06 221.063L144.06 221.067ZM132.968 219.588L132.965 237.588H132.968V219.588ZM131.486 218.107H113.486V218.109L131.486 218.107ZM131.486 208.001H149.486V208L131.486 208.001ZM130.004 206.521L130.01 188.521H130.004V206.521ZM120.956 206.521L120.954 224.521H120.956V206.521ZM119.474 205.041H101.474V205.045L119.474 205.041ZM119.474 176.406L101.474 176.406V176.406H119.474ZM120.956 174.926V156.926L120.954 156.926L120.956 174.926ZM130.004 174.926V192.926H130.01L130.004 174.926ZM131.486 173.446L149.486 173.451V173.446H131.486ZM132.968 152.06V134.06H132.965L132.968 152.06ZM145.542 139.503V121.503H145.541L145.542 139.503ZM170.281 115.36L152.281 115.359V115.36H170.281ZM195.378 112.4L213.378 112.405V112.4H195.378ZM195.378 103.927L177.378 103.922V103.927H195.378ZM196.861 102.447V84.4473H196.86L196.861 102.447ZM226.965 204.732V186.732C226.958 186.732 226.951 186.732 226.944 186.732L226.965 204.732ZM225.483 206.213L207.483 206.191C207.483 206.199 207.483 206.206 207.483 206.213H225.483ZM226.965 224.895L226.944 242.895C226.951 242.895 226.958 242.895 226.965 242.895V224.895ZM238.056 224.895H256.056C256.056 214.953 247.997 206.895 238.056 206.895V224.895ZM238.056 245.212L246.363 261.18C252.319 258.082 256.056 251.926 256.056 245.212H238.056ZM237.802 245.466L252.036 256.484C252.068 256.442 252.1 256.4 252.132 256.359L237.802 245.466ZM232.945 251.741L218.711 240.723C217.996 241.647 217.372 242.638 216.849 243.682L232.945 251.741ZM232.795 252.051V270.051C239.75 270.051 246.083 266.044 249.061 259.759L232.795 252.051ZM217.206 252.051V234.051H217.206L217.206 252.051ZM215.724 275.633H197.724C197.724 275.639 197.724 275.646 197.724 275.652L215.724 275.633ZM217.206 277.112L217.206 295.112H217.206V277.112ZM221.599 277.112L234.329 289.838C239.476 284.69 241.015 276.948 238.228 270.223C235.442 263.497 228.879 259.112 221.599 259.112V277.112ZM221.19 278.08L203.19 278.065C203.19 278.07 203.19 278.075 203.19 278.08H221.19ZM221.19 281.146H203.19C203.19 281.153 203.19 281.16 203.19 281.168L221.19 281.146ZM222.672 282.626L222.66 300.626H222.672V282.626ZM230.854 300.626C240.795 300.626 248.854 292.567 248.854 282.626C248.854 272.685 240.795 264.626 230.854 264.626V282.626V300.626ZM229.371 287.167H211.371V287.172L229.371 287.167ZM258.402 288.647V306.647H258.404L258.402 288.647ZM259.884 287.167L277.884 287.172V287.167H259.884ZM258.402 282.626V264.626C248.461 264.626 240.402 272.684 240.402 282.625C240.401 292.565 248.459 300.625 258.399 300.626L258.402 282.626ZM266.578 282.626V300.626H266.581L266.578 282.626ZM268.061 281.146L286.061 281.168C286.061 281.16 286.061 281.153 286.061 281.146H268.061ZM268.061 278.08H286.061C286.061 278.073 286.061 278.067 286.061 278.06L268.061 278.08ZM267.652 277.112V259.112C260.369 259.112 253.804 263.501 251.019 270.23C248.235 276.959 249.779 284.703 254.933 289.849L267.652 277.112ZM272.049 277.112V295.112H272.051L272.049 277.112ZM273.531 275.633L291.531 275.652C291.531 275.646 291.531 275.639 291.531 275.633H273.531ZM272.049 252.051L272.051 234.051H272.049V252.051ZM256.82 252.051L240.724 260.11C243.775 266.203 250.005 270.051 256.82 270.051V252.051ZM256.665 251.741L272.782 243.726C272.255 242.666 271.624 241.66 270.899 240.723L256.665 251.741ZM251.808 245.466L237.42 256.282C237.471 256.35 237.522 256.417 237.574 256.484L251.808 245.466ZM251.194 245.008H233.194C233.194 251.56 236.754 257.595 242.49 260.764L251.194 245.008ZM251.194 224.895V206.895C241.252 206.895 233.194 214.953 233.194 224.895H251.194ZM262.236 224.895V242.895H262.239L262.236 224.895ZM263.718 206.213H281.718C281.718 206.206 281.718 206.199 281.718 206.191L263.718 206.213ZM262.236 204.732L262.239 186.732H262.236V204.732ZM258.402 263.485L258.404 245.485H258.402V263.485ZM259.884 275.069L277.884 275.072V275.069H259.884ZM258.402 276.55V294.55H258.404L258.402 276.55ZM229.371 275.069H211.371V275.072L229.371 275.069ZM206.879 242.251V224.251H206.877L206.879 242.251ZM206.879 253.172L206.877 271.172H206.879V253.172ZM274.449 242.251V224.251C274.441 224.251 274.433 224.251 274.425 224.251L274.449 242.251ZM274.449 253.172L274.425 271.172C274.433 271.172 274.441 271.172 274.449 271.172V253.172ZM282.426 253.172V271.172C282.431 271.172 282.435 271.172 282.44 271.172L282.426 253.172ZM282.426 242.251L282.44 224.251C282.435 224.251 282.431 224.251 282.426 224.251V242.251ZM194.51 224.69L176.51 224.676C176.51 224.681 176.51 224.686 176.51 224.69H194.51ZM203.964 243.372V261.372H203.969L203.964 243.372ZM205.447 224.69H223.447C223.447 224.686 223.447 224.681 223.447 224.676L205.447 224.69ZM203.964 223.21L203.969 205.21H203.964V223.21ZM285.336 223.21V205.21C285.326 205.21 285.316 205.21 285.306 205.21L285.336 223.21ZM283.854 224.69L265.854 224.676C265.854 224.681 265.854 224.686 265.854 224.69H283.854ZM285.336 243.372L285.306 261.372C285.316 261.372 285.326 261.372 285.336 261.372V243.372ZM293.313 243.372V261.372H293.32L293.313 243.372ZM294.795 224.69H312.795C312.795 224.686 312.795 224.681 312.795 224.676L294.795 224.69ZM293.313 223.21L293.32 205.21H293.313V223.21ZM206.879 164.462V146.462L206.877 146.462L206.879 164.462ZM205.397 165.942L187.397 165.94V165.942H205.397ZM205.397 178.244H187.397L187.397 178.254L205.397 178.244ZM206.879 179.725L206.877 197.725H206.879V179.725ZM219.198 179.725V197.725H219.205L219.198 179.725ZM220.681 178.244L238.681 178.254V178.244H220.681ZM220.681 165.942H238.681V165.94L220.681 165.942ZM219.198 164.462L219.205 146.462H219.198V164.462ZM268.624 165.942L250.624 165.94V165.942H268.624ZM268.624 178.244H250.624V178.254L268.624 178.244ZM282.426 179.725V197.725C282.431 197.725 282.435 197.725 282.44 197.725L282.426 179.725ZM283.909 178.244L301.909 178.254V178.244H283.909ZM283.909 165.942H301.909V165.94L283.909 165.942ZM282.426 164.462L282.44 146.462C282.435 146.462 282.431 146.462 282.426 146.462V164.462ZM296.891 102.447L296.886 120.447C287.789 120.445 280.374 113.075 280.372 103.931L298.372 103.927L316.372 103.922C316.37 93.1456 307.628 84.4504 296.896 84.4473L296.891 102.447ZM298.372 103.927H280.372V112.4H298.372H316.372V103.927H298.372ZM298.372 112.4V94.4004H298.219V112.4V130.4H298.372V112.4ZM298.219 112.4L280.219 112.405C280.222 123.195 288.978 131.878 299.698 131.88L299.701 113.88L299.705 95.8799C308.79 95.8815 316.217 103.239 316.219 112.396L298.219 112.4ZM299.701 113.88V131.88H321.834V113.88V95.8799H299.701V113.88ZM321.834 113.88L321.831 131.88C312.734 131.878 305.317 124.509 305.317 115.361L323.317 115.36L341.317 115.359C341.316 104.579 332.57 95.8815 321.837 95.8799L321.834 113.88ZM323.317 115.36H305.317V124.956H323.317H341.317V115.36H323.317ZM323.317 124.956H305.317C305.317 135.736 314.062 144.437 324.799 144.437V126.437V108.437C333.901 108.437 341.317 115.81 341.317 124.956H323.317ZM324.799 126.437V144.437H334.408V126.437V108.437H324.799V126.437ZM334.408 126.437L334.403 144.437C325.295 144.434 317.89 137.053 317.89 127.917H335.89H353.89C353.89 117.148 345.157 108.44 334.414 108.437L334.408 126.437ZM335.89 127.917H317.89V138.022H335.89H353.89V127.917H335.89ZM335.89 138.022H317.89C317.89 148.805 326.638 157.501 337.369 157.503L337.372 139.503L337.376 121.503C346.471 121.505 353.89 128.873 353.89 138.022H335.89ZM337.372 139.503V157.503H348.055V139.503V121.503H337.372V139.503ZM348.055 139.503V157.503C338.953 157.503 331.537 150.13 331.537 140.983H349.537H367.537C367.537 130.204 358.792 121.503 348.055 121.503V139.503ZM349.537 140.983H331.537V150.579H349.537H367.537V140.983H349.537ZM349.537 150.579H331.537C331.537 161.361 340.285 170.058 351.017 170.06L351.02 152.06L351.023 134.06C360.119 134.061 367.537 141.43 367.537 150.579H349.537ZM351.02 152.06V170.06H360.629V152.06V134.06H351.02V152.06ZM360.629 152.06V170.06C351.528 170.06 344.112 162.686 344.112 153.54H362.112H380.112C380.112 142.76 371.366 134.06 360.629 134.06V152.06ZM362.112 153.54H344.112V173.446H362.112H380.112V153.54H362.112ZM362.112 173.446L344.112 173.451C344.115 184.237 352.867 192.926 363.594 192.926L363.594 174.926L363.594 156.926C372.685 156.926 380.109 164.288 380.112 173.441L362.112 173.446ZM363.594 174.926V192.926H372.641V174.926V156.926H363.594V174.926ZM372.641 174.926V192.926C363.539 192.926 356.123 185.552 356.123 176.407L374.123 176.406L392.123 176.406C392.123 165.627 383.378 156.926 372.641 156.926V174.926ZM374.123 176.406H356.123V205.041H374.123H392.123V176.406H374.123ZM374.123 205.041L356.123 205.037C356.126 195.883 363.55 188.521 372.641 188.521V206.521V224.521C383.367 224.521 392.121 215.832 392.123 205.045L374.123 205.041ZM372.641 206.521V188.521H363.594V206.521V224.521H372.641V206.521ZM363.594 206.521L363.594 188.521C352.856 188.521 344.112 197.222 344.112 208L362.112 208.001L380.112 208.002C380.111 217.147 372.697 224.52 363.594 224.521L363.594 206.521ZM362.112 208.001H344.112V218.107H362.112H380.112V208.001H362.112ZM362.112 218.107L344.112 218.106C344.112 208.962 351.526 201.588 360.629 201.588V219.588V237.588C371.368 237.588 380.111 228.886 380.112 218.109L362.112 218.107ZM360.629 219.588V201.588H351.02V219.588V237.588H360.629V219.588ZM351.02 219.588L351.017 201.588C340.296 201.59 331.54 210.273 331.537 221.063L349.537 221.067L367.537 221.071C367.535 230.229 360.108 237.587 351.023 237.588L351.02 219.588ZM349.537 221.067H331.537V230.663H349.537H367.537V221.067H349.537ZM349.537 230.663H331.537C331.537 221.517 338.953 214.144 348.055 214.144V232.144V250.144C358.792 250.144 367.537 241.443 367.537 230.663H349.537ZM348.055 232.144V214.144H341.156V232.144V250.144H348.055V232.144ZM341.156 232.144V214.144C330.418 214.144 321.673 222.844 321.673 233.624H339.673H357.673C357.673 242.77 350.257 250.144 341.156 250.144V232.144ZM339.673 233.624H321.673V253.53H339.673H357.673V233.624H339.673ZM339.673 253.53L321.673 253.53C321.673 244.382 329.091 237.012 338.188 237.011L338.191 255.011L338.194 273.011C348.926 273.009 357.673 264.312 357.673 253.531L339.673 253.53ZM338.191 255.011V237.011H328.07V255.011V273.011H338.191V255.011ZM328.07 255.011L328.073 237.011C337.169 237.013 344.587 244.381 344.587 253.53L326.587 253.53L308.587 253.531C308.587 264.313 317.335 273.009 328.066 273.011L328.07 255.011ZM326.587 253.53H344.587V245.058H326.587H308.587V253.53H326.587ZM326.587 245.058H344.587C344.587 234.289 335.854 225.58 325.111 225.577L325.106 243.577L325.101 261.577C315.993 261.575 308.587 254.194 308.587 245.058H326.587ZM325.106 243.577V225.577H324.237V243.577V261.577H325.106V243.577ZM324.237 243.577V225.577C333.338 225.577 340.754 232.95 340.754 242.097H322.754H304.754C304.754 252.876 313.499 261.577 324.237 261.577V243.577ZM322.754 242.097H340.754V149.252H322.754H304.754V242.097H322.754ZM322.754 149.252L340.754 149.25C340.753 138.474 332.011 129.771 321.272 129.771V147.771V165.771C312.168 165.771 304.755 158.397 304.754 149.254L322.754 149.252ZM321.272 147.771V129.771H311.152V147.771V165.771H321.272V147.771ZM311.152 147.771V129.771C300.413 129.771 291.67 138.474 291.669 149.25L309.669 149.252L327.669 149.254C327.668 158.397 320.255 165.771 311.152 165.771V147.771ZM309.669 149.252H291.669V276.907H309.669H327.669V149.252H309.669ZM309.669 276.907H291.669C291.669 287.687 300.414 296.388 311.152 296.388V278.388V260.388C320.253 260.388 327.669 267.761 327.669 276.907H309.669ZM311.152 278.388V296.388H315.854V278.388V260.388H311.152V278.388ZM315.854 278.388L315.853 296.388C306.753 296.387 299.336 289.016 299.336 279.868H317.336H335.336C335.336 269.088 326.59 260.388 315.855 260.388L315.854 278.388ZM317.336 279.868H299.336V306.308H317.336H335.336V279.868H317.336ZM317.336 306.308L299.336 306.304C299.338 297.148 306.765 289.788 315.853 289.787L315.854 307.787L315.855 325.787C326.578 325.786 335.334 317.101 335.336 306.311L317.336 306.308ZM315.854 307.787V289.787H177.693V307.787V325.787H315.854V307.787ZM177.693 307.787L177.696 289.787C186.78 289.789 194.208 297.145 194.21 306.304L176.21 306.308L158.21 306.311C158.212 317.103 166.97 325.785 177.689 325.787L177.693 307.787ZM176.21 306.308H194.21V279.868H176.21H158.21V306.308H176.21ZM176.21 279.868H194.21C194.21 289.018 186.792 296.386 177.696 296.388L177.693 278.388L177.689 260.388C166.958 260.39 158.21 269.085 158.21 279.868H176.21ZM177.693 278.388V296.388H182.396V278.388V260.388H177.693V278.388ZM182.396 278.388L182.4 296.388C193.129 296.385 201.878 287.691 201.878 276.907H183.878H165.878C165.878 267.757 173.297 260.39 182.391 260.388L182.396 278.388ZM183.878 276.907H201.878V149.252H183.878H165.878V276.907H183.878ZM183.878 149.252L201.878 149.25C201.877 138.47 193.131 129.774 182.4 129.771L182.396 147.771L182.391 165.771C173.295 165.769 165.879 158.401 165.878 149.254L183.878 149.252ZM182.396 147.771V129.771H172.275V147.771V165.771H182.396V147.771ZM172.275 147.771L172.272 129.771C161.538 129.773 152.793 138.472 152.792 149.25L170.792 149.252L188.792 149.254C188.791 158.399 181.376 165.77 172.277 165.771L172.275 147.771ZM170.792 149.252H152.792V242.097H170.792H188.792V149.252H170.792ZM170.792 242.097H152.792C152.792 232.95 160.208 225.577 169.31 225.577V243.577V261.577C180.047 261.577 188.792 252.876 188.792 242.097H170.792ZM169.31 243.577V225.577H168.442V243.577V261.577H169.31V243.577ZM168.442 243.577V225.577C157.704 225.577 148.959 234.278 148.959 245.058H166.959H184.959C184.959 254.204 177.543 261.577 168.442 261.577V243.577ZM166.959 245.058H148.959V253.53H166.959H184.959V245.058H166.959ZM166.959 253.53L148.959 253.53C148.96 244.383 156.376 237.011 165.476 237.011L165.477 255.011L165.478 273.011C176.214 273.01 184.959 264.311 184.959 253.531L166.959 253.53ZM165.477 255.011V237.011H155.356V255.011V273.011H165.477V255.011ZM155.356 255.011L155.361 237.011C164.469 237.013 171.874 244.394 171.874 253.53L153.874 253.53L135.874 253.531C135.875 264.299 144.607 273.008 155.35 273.011L155.356 255.011ZM153.874 253.53H171.874V233.624H153.874H135.874V253.53H153.874ZM153.874 233.624H171.874C171.874 222.841 163.126 214.146 152.395 214.144L152.392 232.144L152.388 250.144C143.293 250.142 135.874 242.774 135.874 233.624H153.874ZM152.392 232.144V214.144H145.542V232.144V250.144H152.392V232.144ZM145.542 232.144L145.543 214.144C154.643 214.144 162.06 221.516 162.06 230.663H144.06H126.06C126.06 241.443 134.806 250.143 145.541 250.144L145.542 232.144ZM144.06 230.663H162.06V221.067H144.06H126.06V230.663H144.06ZM144.06 221.067L162.06 221.063C162.057 210.276 153.303 201.588 142.577 201.588V219.588V237.588C133.487 237.588 126.062 230.226 126.06 221.071L144.06 221.067ZM142.577 219.588V201.588H132.968V219.588V237.588H142.577V219.588ZM132.968 219.588L132.971 201.588C142.068 201.59 149.485 208.959 149.486 218.106L131.486 218.107L113.486 218.109C113.486 228.889 122.232 237.586 132.965 237.588L132.968 219.588ZM131.486 218.107H149.486V208.001H131.486H113.486V218.107H131.486ZM131.486 208.001L149.486 208C149.485 197.232 140.753 188.524 130.01 188.521L130.004 206.521L129.999 224.521C120.89 224.518 113.486 217.137 113.486 208.002L131.486 208.001ZM130.004 206.521V188.521H120.956V206.521V224.521H130.004V206.521ZM120.956 206.521L120.959 188.521C130.045 188.522 137.472 195.88 137.474 205.037L119.474 205.041L101.474 205.045C101.477 215.835 110.233 224.519 120.954 224.521L120.956 206.521ZM119.474 205.041H137.474V176.406H119.474H101.474V205.041H119.474ZM119.474 176.406L137.474 176.407C137.474 185.555 130.056 192.924 120.959 192.926L120.956 174.926L120.954 156.926C110.221 156.927 101.474 165.624 101.474 176.406L119.474 176.406ZM120.956 174.926V192.926H130.004V174.926V156.926H120.956V174.926ZM130.004 174.926L130.01 192.926C140.742 192.923 149.483 184.227 149.486 173.451L131.486 173.446L113.486 173.441C113.488 164.298 120.901 156.929 129.999 156.926L130.004 174.926ZM131.486 173.446H149.486V153.54H131.486H113.486V173.446H131.486ZM131.486 153.54H149.486C149.486 162.69 142.067 170.058 132.971 170.06L132.968 152.06L132.965 134.06C122.233 134.062 113.486 142.757 113.486 153.54H131.486ZM132.968 152.06V170.06H142.577V152.06V134.06H132.968V152.06ZM142.577 152.06V170.06C153.315 170.06 162.06 161.359 162.06 150.579H144.06H126.06C126.06 141.433 133.476 134.06 142.577 134.06V152.06ZM144.06 150.579H162.06V140.983H144.06H126.06V150.579H144.06ZM144.06 140.983H162.06C162.06 150.13 154.643 157.503 145.543 157.503L145.542 139.503L145.541 121.503C134.806 121.503 126.06 130.203 126.06 140.983H144.06ZM145.542 139.503V157.503H156.225V139.503V121.503H145.542V139.503ZM156.225 139.503V157.503C166.962 157.503 175.707 148.802 175.707 138.022H157.707H139.707C139.707 128.876 147.123 121.503 156.225 121.503V139.503ZM157.707 138.022H175.707V127.917H157.707H139.707V138.022H157.707ZM157.707 127.917H175.707C175.707 137.063 168.291 144.437 159.19 144.437V126.437V108.437C148.453 108.437 139.707 117.137 139.707 127.917H157.707ZM159.19 126.437V144.437H168.799V126.437V108.437H159.19V126.437ZM168.799 126.437V144.437C179.536 144.437 188.281 135.736 188.281 124.956H170.281H152.281C152.281 115.81 159.698 108.437 168.799 108.437V126.437ZM170.281 124.956H188.281V115.36H170.281H152.281V124.956H170.281ZM170.281 115.36L188.281 115.361C188.281 124.506 180.867 131.88 171.764 131.88V113.88V95.8799C161.026 95.8799 152.282 104.582 152.281 115.359L170.281 115.36ZM171.764 113.88V131.88H193.896V113.88V95.8799H171.764V113.88ZM193.896 113.88V131.88C204.622 131.88 213.376 123.192 213.378 112.405L195.378 112.4L177.378 112.396C177.38 103.242 184.805 95.8799 193.896 95.8799V113.88ZM195.378 112.4H213.378V103.927H195.378H177.378V112.4H195.378ZM195.378 103.927L213.378 103.931C213.376 113.086 205.951 120.447 196.861 120.447L196.861 102.447L196.86 84.4473C186.135 84.4474 177.381 93.135 177.378 103.922L195.378 103.927ZM196.861 102.447V120.447H296.891V102.447V84.4473H196.861V102.447ZM226.965 204.732L226.944 186.732C216.225 186.745 207.495 195.43 207.483 206.191L225.483 206.213L243.483 206.234C243.472 215.365 236.073 222.722 226.986 222.732L226.965 204.732ZM225.483 206.213H207.483V223.414H225.483H243.483V206.213H225.483ZM225.483 223.414H207.483C207.483 234.214 216.245 242.882 226.944 242.895L226.965 224.895L226.986 206.895C236.051 206.905 243.483 214.246 243.483 223.414H225.483ZM226.965 224.895V242.895H238.056V224.895V206.895H226.965V224.895ZM238.056 224.895H220.056V245.212H238.056H256.056V224.895H238.056ZM238.056 245.212L229.749 229.243C227.652 230.334 226.262 231.592 225.828 231.989C225.212 232.552 224.752 233.049 224.494 233.336C223.973 233.917 223.6 234.405 223.472 234.573L237.802 245.466L252.132 256.359C252.01 256.518 251.713 256.906 251.293 257.374C251.086 257.606 250.682 258.044 250.121 258.556C249.833 258.82 249.41 259.189 248.868 259.599C248.358 259.984 247.506 260.586 246.363 261.18L238.056 245.212ZM237.802 245.466L223.568 234.448L218.711 240.723L232.945 251.741L247.179 262.759L252.036 256.484L237.802 245.466ZM232.945 251.741L216.849 243.682C216.746 243.89 216.646 244.097 216.618 244.156C216.594 244.206 216.573 244.25 216.558 244.282C216.551 244.297 216.544 244.311 216.539 244.321C216.537 244.326 216.535 244.331 216.533 244.334C216.532 244.336 216.532 244.338 216.531 244.339C216.531 244.34 216.53 244.34 216.53 244.341C216.53 244.341 216.53 244.341 216.53 244.341C216.53 244.342 216.53 244.342 216.529 244.342C216.529 244.342 216.529 244.342 216.529 244.342C216.529 244.342 216.529 244.342 232.795 252.051C249.061 259.759 249.061 259.759 249.061 259.76C249.061 259.76 249.061 259.76 249.061 259.76C249.061 259.76 249.061 259.76 249.061 259.76C249.061 259.76 249.061 259.76 249.06 259.761C249.06 259.761 249.06 259.761 249.06 259.762C249.06 259.762 249.06 259.762 249.059 259.763C249.059 259.763 249.059 259.763 249.06 259.762C249.06 259.76 249.062 259.757 249.065 259.752C249.07 259.741 249.077 259.726 249.084 259.712C249.118 259.641 249.093 259.694 249.04 259.8L232.945 251.741ZM232.795 252.051V234.051H217.206V252.051V270.051H232.795V252.051ZM217.206 252.051L217.206 234.051C206.47 234.051 197.724 242.751 197.724 253.531H215.724H233.724C233.724 262.678 226.307 270.05 217.207 270.051L217.206 252.051ZM215.724 253.531H197.724V275.633H215.724H233.724V253.531H215.724ZM215.724 275.633L197.724 275.652C197.736 286.412 206.466 295.112 217.206 295.112L217.206 277.112L217.207 259.112C226.312 259.113 233.714 266.485 233.724 275.613L215.724 275.633ZM217.206 277.112V295.112H221.599V277.112V259.112H217.206V277.112ZM221.599 277.112L208.869 264.386C205.685 267.571 203.195 272.3 203.19 278.065L221.19 278.08L239.19 278.096C239.188 280.248 238.76 282.561 237.761 284.82C236.781 287.035 235.48 288.687 234.329 289.838L221.599 277.112ZM221.19 278.08H203.19V281.146H221.19H239.19V278.08H221.19ZM221.19 281.146L203.19 281.168C203.203 291.919 211.924 300.619 222.66 300.626L222.672 282.626L222.684 264.626C231.787 264.632 239.179 272.003 239.19 281.124L221.19 281.146ZM222.672 282.626V300.626H230.854V282.626V264.626H222.672V282.626ZM230.854 282.626V264.626C220.117 264.626 211.371 273.327 211.371 284.106H229.371H247.371C247.371 293.253 239.955 300.626 230.854 300.626V282.626ZM229.371 284.106H211.371V287.167H229.371H247.371V284.106H229.371ZM229.371 287.167L211.371 287.172C211.374 297.943 220.112 306.647 230.854 306.647V288.647V270.647C239.96 270.647 247.369 278.024 247.371 287.162L229.371 287.167ZM230.854 288.647V306.647H258.402V288.647V270.647H230.854V288.647ZM258.402 288.647L258.404 306.647C269.142 306.646 277.881 297.945 277.884 287.172L259.884 287.167L241.884 287.162C241.887 278.022 249.297 270.649 258.399 270.647L258.402 288.647ZM259.884 287.167H277.884V284.106H259.884H241.884V287.167H259.884ZM259.884 284.106H277.884C277.884 273.325 269.137 264.627 258.404 264.626L258.402 282.626L258.399 300.626C249.302 300.625 241.884 293.255 241.884 284.106H259.884ZM258.402 282.626V300.626H266.578V282.626V264.626H258.402V282.626ZM266.578 282.626L266.581 300.626C277.335 300.624 286.048 291.91 286.061 281.168L268.061 281.146L250.061 281.123C250.072 272.013 257.456 264.627 266.576 264.626L266.578 282.626ZM268.061 281.146H286.061V278.08H268.061H250.061V281.146H268.061ZM268.061 278.08L286.061 278.06C286.055 272.718 283.848 267.848 280.371 264.375L267.652 277.112L254.933 289.849C251.966 286.887 250.066 282.729 250.061 278.1L268.061 278.08ZM267.652 277.112V295.112H272.049V277.112V259.112H267.652V277.112ZM272.049 277.112L272.051 295.112C282.788 295.111 291.52 286.414 291.531 275.652L273.531 275.633L255.532 275.613C255.541 266.484 262.944 259.113 272.047 259.112L272.049 277.112ZM273.531 275.633H291.531V253.531H273.531H255.531V275.633H273.531ZM273.531 253.531H291.531C291.531 242.75 282.785 234.052 272.051 234.051L272.049 252.051L272.047 270.051C262.949 270.05 255.531 262.679 255.531 253.531H273.531ZM272.049 252.051V234.051H256.82V252.051V270.051H272.049V252.051ZM256.82 252.051L272.915 243.992C272.899 243.961 272.869 243.899 272.836 243.834C272.821 243.804 272.807 243.777 272.798 243.757C272.793 243.747 272.789 243.739 272.786 243.734C272.785 243.731 272.784 243.729 272.783 243.728C272.783 243.727 272.783 243.727 272.782 243.726C272.782 243.726 272.782 243.726 272.782 243.726C272.782 243.726 272.782 243.726 272.782 243.726C272.782 243.726 272.782 243.726 272.782 243.726C272.782 243.726 272.782 243.726 272.782 243.726C272.782 243.726 272.782 243.726 256.665 251.741C240.548 259.756 240.548 259.756 240.548 259.756C240.548 259.756 240.548 259.756 240.548 259.756C240.548 259.756 240.548 259.756 240.548 259.756C240.548 259.756 240.548 259.756 240.548 259.757C240.548 259.757 240.549 259.757 240.549 259.757C240.549 259.758 240.549 259.758 240.55 259.759C240.551 259.761 240.552 259.764 240.553 259.767C240.557 259.773 240.561 259.782 240.567 259.794C240.578 259.816 240.593 259.847 240.611 259.881C240.642 259.945 240.689 260.039 240.724 260.11L256.82 252.051ZM256.665 251.741L270.899 240.723L266.042 234.448L251.808 245.466L237.574 256.484L242.431 262.759L256.665 251.741ZM251.808 245.466L266.196 234.65C264.851 232.861 263.471 231.722 262.979 231.323C262.318 230.788 261.74 230.39 261.387 230.156C261.006 229.904 260.678 229.704 260.449 229.568C260.329 229.497 260.222 229.435 260.131 229.383C260.086 229.357 260.043 229.333 260.004 229.311C259.985 229.301 259.966 229.29 259.948 229.28C259.939 229.275 259.93 229.27 259.922 229.266C259.918 229.263 259.914 229.261 259.909 229.259C259.907 229.258 259.905 229.256 259.903 229.255C259.902 229.255 259.901 229.254 259.9 229.254C259.899 229.253 259.897 229.252 251.194 245.008C242.49 260.764 242.489 260.763 242.487 260.762C242.487 260.762 242.485 260.761 242.484 260.76C242.482 260.759 242.48 260.758 242.478 260.757C242.474 260.755 242.47 260.753 242.466 260.75C242.458 260.746 242.45 260.741 242.442 260.737C242.426 260.728 242.41 260.719 242.394 260.71C242.361 260.692 242.329 260.674 242.296 260.655C242.231 260.618 242.161 260.577 242.087 260.533C241.95 260.452 241.746 260.328 241.5 260.165C241.282 260.02 240.847 259.725 240.316 259.294C239.953 259 238.689 257.97 237.42 256.282L251.808 245.466ZM251.194 245.008H269.194V224.895H251.194H233.194V245.008H251.194ZM251.194 224.895V242.895H262.236V224.895V206.895H251.194V224.895ZM262.236 224.895L262.239 242.895C272.97 242.892 281.718 234.197 281.718 223.414H263.718H245.718C245.718 214.264 253.137 206.896 262.232 206.895L262.236 224.895ZM263.718 223.414H281.718V206.213H263.718H245.718V223.414H263.718ZM263.718 206.213L281.718 206.191C281.705 195.447 272.99 186.735 262.239 186.732L262.236 204.732L262.232 222.732C253.115 222.73 245.729 215.347 245.718 206.234L263.718 206.213ZM262.236 204.732V186.732H226.965V204.732V222.732H262.236V204.732ZM258.402 263.485L258.399 281.485C249.302 281.484 241.884 274.114 241.884 264.966H259.884H277.884C277.884 254.184 269.137 245.487 258.404 245.485L258.402 263.485ZM259.884 264.966H241.884V275.069H259.884H277.884V264.966H259.884ZM259.884 275.069L241.884 275.067C241.885 265.923 249.299 258.551 258.399 258.55L258.402 276.55L258.404 294.55C269.139 294.548 277.882 285.849 277.884 275.072L259.884 275.069ZM258.402 276.55V258.55H230.854V276.55V294.55H258.402V276.55ZM230.854 276.55V258.55C239.958 258.55 247.37 265.925 247.371 275.067L229.371 275.069L211.371 275.072C211.373 285.847 220.114 294.55 230.854 294.55V276.55ZM229.371 275.069H247.371V264.966H229.371H211.371V275.069H229.371ZM229.371 264.966H247.371C247.371 274.112 239.955 281.485 230.854 281.485V263.485V245.485C220.117 245.485 211.371 254.186 211.371 264.966H229.371ZM230.854 263.485V281.485H258.402V263.485V245.485H230.854V263.485ZM206.879 242.251L206.877 224.251C196.144 224.252 187.397 232.95 187.397 243.731H205.397H223.397C223.397 252.88 215.979 260.25 206.881 260.251L206.879 242.251ZM205.397 243.731H187.397V251.691H205.397H223.397V243.731H205.397ZM205.397 251.691H187.397C187.397 262.473 196.144 271.17 206.877 271.172L206.879 253.172L206.881 235.172C215.979 235.173 223.397 242.543 223.397 251.691H205.397ZM206.879 253.172V271.172H214.85V253.172V235.172H206.879V253.172ZM214.85 253.172V271.172C225.572 271.172 234.333 262.486 234.333 251.691H216.333H198.333C198.333 242.53 205.764 235.172 214.85 235.172V253.172ZM216.333 251.691H234.333V243.731H216.333H198.333V251.691H216.333ZM216.333 243.731H234.333C234.333 232.936 225.572 224.251 214.85 224.251V242.251V260.251C205.764 260.251 198.333 252.893 198.333 243.731H216.333ZM214.85 242.251V224.251H206.879V242.251V260.251H214.85V242.251ZM274.449 242.251L274.425 224.251C263.732 224.265 254.967 232.929 254.967 243.731H272.967H290.967C290.967 252.902 283.533 260.239 274.474 260.251L274.449 242.251ZM272.967 243.731H254.967V251.691H272.967H290.967V243.731H272.967ZM272.967 251.691H254.967C254.967 262.494 263.732 271.158 274.425 271.172L274.449 253.172L274.474 235.172C283.533 235.184 290.967 242.521 290.967 251.691H272.967ZM274.449 253.172V271.172H282.426V253.172V235.172H274.449V253.172ZM282.426 253.172L282.44 271.172C293.136 271.163 301.909 262.5 301.909 251.691H283.909H265.909C265.909 242.515 273.35 235.179 282.412 235.172L282.426 253.172ZM283.909 251.691H301.909V243.731H283.909H265.909V251.691H283.909ZM283.909 243.731H301.909C301.909 232.923 293.136 224.259 282.44 224.251L282.426 242.251L282.412 260.251C273.35 260.244 265.909 252.908 265.909 243.731H283.909ZM282.426 242.251V224.251H274.449V242.251V260.251H282.426V242.251ZM195.992 223.21V205.21C185.242 205.21 176.518 213.922 176.51 224.676L194.51 224.69L212.51 224.705C212.503 233.826 205.108 241.21 195.992 241.21V223.21ZM194.51 224.69H176.51V241.892H194.51H212.51V224.69H194.51ZM194.51 241.892H176.51C176.51 252.671 185.255 261.372 195.992 261.372V243.372V225.372C205.094 225.372 212.51 232.745 212.51 241.892H194.51ZM195.992 243.372V261.372H203.964V243.372V225.372H195.992V243.372ZM203.964 243.372L203.969 261.372C214.697 261.369 223.447 252.676 223.447 241.892H205.447H187.447C187.447 232.74 194.866 225.375 203.959 225.372L203.964 243.372ZM205.447 241.892H223.447V224.69H205.447H187.447V241.892H205.447ZM205.447 224.69L223.447 224.676C223.438 213.917 214.711 205.213 203.969 205.21L203.964 223.21L203.959 241.21C194.852 241.207 187.454 233.832 187.447 224.705L205.447 224.69ZM203.964 223.21V205.21H195.992V223.21V241.21H203.964V223.21ZM285.336 223.21L285.306 205.21C274.61 205.228 265.862 213.893 265.854 224.676L283.854 224.69L301.854 224.705C301.847 233.857 294.43 241.195 285.367 241.21L285.336 223.21ZM283.854 224.69H265.854V241.892H283.854H301.854V224.69H283.854ZM283.854 241.892H265.854C265.854 252.7 274.624 261.354 285.306 261.372L285.336 243.372L285.367 225.372C294.415 225.387 301.854 232.714 301.854 241.892H283.854ZM285.336 243.372V261.372H293.313V243.372V225.372H285.336V243.372ZM293.313 243.372L293.32 261.372C304.044 261.368 312.795 252.678 312.795 241.892H294.795H276.795C276.795 232.738 284.217 225.376 293.306 225.372L293.313 243.372ZM294.795 241.892H312.795V224.69H294.795H276.795V241.892H294.795ZM294.795 224.69L312.795 224.676C312.787 213.915 304.058 205.214 293.32 205.21L293.313 223.21L293.306 241.21C284.202 241.206 276.802 233.834 276.795 224.705L294.795 224.69ZM293.313 223.21V205.21H285.336V223.21V241.21H293.313V223.21ZM206.879 164.462L206.877 146.462C196.141 146.463 187.398 155.163 187.397 165.94L205.397 165.942L223.397 165.945C223.395 175.089 215.982 182.461 206.881 182.462L206.879 164.462ZM205.397 165.942H187.397V178.244H205.397H223.397V165.942H205.397ZM205.397 178.244L187.397 178.254C187.402 189.018 196.135 197.723 206.877 197.725L206.879 179.725L206.881 161.725C215.989 161.726 223.392 169.103 223.397 178.235L205.397 178.244ZM206.879 179.725V197.725H219.198V179.725V161.725H206.879V179.725ZM219.198 179.725L219.205 197.725C229.923 197.72 238.675 189.038 238.681 178.254L220.681 178.244L202.681 178.235C202.686 169.082 210.107 161.728 219.19 161.725L219.198 179.725ZM220.681 178.244H238.681V165.942H220.681H202.681V178.244H220.681ZM220.681 165.942L238.681 165.94C238.679 155.143 229.916 146.466 219.205 146.462L219.198 164.462L219.19 182.462C210.114 182.458 202.682 175.109 202.681 165.945L220.681 165.942ZM219.198 164.462V146.462H206.879V164.462V182.462H219.198V164.462ZM270.108 164.462V146.462C259.383 146.462 250.626 155.15 250.624 165.94L268.624 165.942L286.624 165.945C286.623 175.102 279.197 182.462 270.108 182.462V164.462ZM268.624 165.942H250.624V178.244H268.624H286.624V165.942H268.624ZM268.624 178.244L250.624 178.254C250.63 189.031 259.377 197.725 270.108 197.725V179.725V161.725C279.204 161.725 286.619 169.09 286.624 178.235L268.624 178.244ZM270.108 179.725V197.725H282.426V179.725V161.725H270.108V179.725ZM282.426 179.725L282.44 197.725C293.145 197.716 301.904 189.045 301.909 178.254L283.909 178.244L265.909 178.235C265.914 169.075 273.341 161.732 282.412 161.725L282.426 179.725ZM283.909 178.244H301.909V165.942H283.909H265.909V178.244H283.909ZM283.909 165.942L301.909 165.94C301.908 155.136 293.139 146.47 282.44 146.462L282.426 164.462L282.412 182.462C273.347 182.455 265.911 175.116 265.909 165.945L283.909 165.942ZM282.426 164.462V146.462H270.108V164.462V182.462H282.426V164.462Z" fill="#252526" mask="url(#path-10-outside-1_6_180)"/>
<path d="M1224.18 264.682V143.23H1261.94C1293.43 143.23 1308.74 164.632 1308.74 203.956C1308.74 243.28 1293.43 264.682 1261.94 264.682H1224.18ZM1246.62 246.412H1260.37C1277.07 246.412 1284.9 235.102 1284.9 214.396V193.342C1284.9 172.81 1277.07 161.5 1260.37 161.5H1246.62V246.412Z" fill="#E0E0E0"/>
<path d="M1364.01 266.77C1336.86 266.77 1320.16 248.674 1320.16 219.79C1320.16 190.906 1336.86 172.81 1364.01 172.81C1391.15 172.81 1407.86 190.906 1407.86 219.79C1407.86 248.674 1391.15 266.77 1364.01 266.77ZM1364.01 249.718C1376.71 249.718 1384.71 241.714 1384.71 226.75V212.83C1384.71 197.866 1376.71 189.862 1364.01 189.862C1351.31 189.862 1343.3 197.866 1343.3 212.83V226.75C1343.3 241.714 1351.31 249.718 1364.01 249.718Z" fill="#E0E0E0"/>
<path d="M1463.82 266.77C1436.33 266.77 1419.8 248.674 1419.8 219.79C1419.8 190.906 1436.5 172.81 1463.65 172.81C1482.61 172.81 1493.92 181.51 1499.84 194.386L1482.61 203.782C1479.48 196.126 1473.74 190.906 1463.65 190.906C1450.6 190.906 1443.11 199.258 1443.11 212.308V227.272C1443.11 240.148 1450.42 248.674 1463.99 248.674C1474.61 248.674 1480.52 243.28 1484.53 235.276L1501.23 245.194C1495.14 257.896 1483.13 266.77 1463.82 266.77Z" fill="#E0E0E0"/>
<path d="M1555.32 266.77C1535.66 266.77 1520.87 260.158 1512.87 249.718L1525.92 237.886C1533.23 245.89 1542.8 250.588 1555.5 250.588C1566.63 250.588 1573.94 246.934 1573.94 239.278C1573.94 232.84 1568.9 231.1 1561.59 230.056L1547.15 227.794C1532.18 225.532 1517.91 219.616 1517.91 201.868C1517.91 183.25 1533.05 172.81 1557.41 172.81C1574.64 172.81 1586.82 178.03 1594.65 186.73L1582.99 199.606C1577.94 194.038 1569.59 188.992 1556.72 188.992C1545.58 188.992 1539.66 192.646 1539.66 199.606C1539.66 206.044 1544.88 207.958 1552.19 209.002L1566.46 211.264C1581.6 213.526 1595.87 219.268 1595.87 237.016C1595.87 255.46 1580.73 266.77 1555.32 266.77Z" fill="#E0E0E0"/>
</svg>
